<?xml version="1.0"?>
<svg version="1.1" xmlns="http://www.w3.org/2000/svg" width="400" height="200" style="border: dashed 2px #aaa"><path fill="#ffffff" d="M37.148,104.816q-1.036,0.42-1.778,0.42t-0.742-0.308q0-0.196,0.826-0.224t1.19-0.196q1.064-0.56,1.064-1.652q0-0.56-0.308-1.176q-0.896-1.596-4.34-1.596q-1.988,0-3.976,0.602t-3.332,1.848t-1.344,2.31q0,1.624,3.22,2.38l3.304,0.616q1.988,0.364,2.968,1.008q1.288,0.784,1.288,2.24q0,0.588-0.196,1.26q-0.896,3.024-4.62,4.62q-3.108,1.372-7.336,1.372q-1.204,0-2.1-0.112q0.896,0.504,2.352,0.868q0.112,0.028,0.112,0.112q0,0.252-0.588,0.252q-1.148,0-2.856-1.372q-2.324-0.364-3.472-1.288q-0.728-0.588-1.344-1.736t-0.616-2.072t0.364-1.54q0.84-1.484,2.128-1.484q0.98,0,1.148,1.652q0.392,3.192,0.532,3.64q0.42,1.372,1.428,2.324q1.176,0.252,2.548,0.252q3.024,0,5.936-1.204t4.2-3.416q0.532-0.868,0.532-1.54q0-1.316-2.324-2.044l-4.928-1.12q-1.512-0.364-2.422-1.204t-0.91-1.932q0-1.68,2.1-3.36q1.596-1.288,3.906-2.002t4.536-0.714t3.682,0.644q1.876,0.868,1.876,2.534t-1.708,2.338z M19.116,117.304q-1.624-1.792-2.072-4.9q-0.252-1.764-0.476-1.764t-0.42,0.126t-0.392,0.546t-0.196,1.092q0,2.156,1.512,3.696q0.756,0.784,2.044,1.204z M49.02476,115.652q-0.672,1.036-0.672,1.344t0.252,0.448q0,0.028-0.504,0.42q-0.448,0.224-1.008,0.224t-0.812-0.126t-0.168-0.406q0.392-1.26,2.94-5.054t3.416-5.362q1.876-3.388,1.876-5.404q0-0.84-0.28-1.428q-0.56-1.148-2.66-1.148q-3.276,0-6.776,2.828q-2.8,2.268-4.284,4.802t-1.484,4.522q0,2.856,2.52,2.912l0.224,0q3.22,0,4.984-2.324q0.672-0.924,0.672-1.568t-0.28-0.812q-0.028-0.028-0.028-0.112t0.168-0.084q0.728,0,0.728,0.952q0,0.588-0.574,1.596t-2.03,1.904t-3.388,0.896t-3.08-1.204t-1.148-3.164q0-4.424,5.768-9.044q1.484-1.176,3.906-1.932t4.634-0.756t3.01,0.77t0.798,2.058q0,1.96-1.596,5.292q-0.504,1.036-2.268,3.78l2.156-2.744q1.568-2.044,5.432-5.824q0.84-0.812,1.862-1.358t1.75-0.546q1.008,0,1.008,1.064q0,0.924-0.882,2.786t-1.778,3.528t-1.092,2.184t-0.28,0.826t-0.112,0.336q0.084-0.14,1.848-2.142t5.208-4.998l4.48-3.696q0.532-0.448,0.952-0.448t0.686,0.7t0.266,1.134t-1.344,1.806q-3.5,3.584-5.936,7.84t-2.436,6.076q0,0.476,0.168,0.658t0.532,0.112t1.526-0.574t1.526-0.588q0.14,0.056,0.14,0.14q0,0.42-1.47,1.176t-2.212,0.756t-0.91-0.252q-0.504-0.728-0.504-1.764q0-2.408,2.576-6.916q1.652-2.828,5.096-7.616q-2.688,2.184-7.28,6.692t-6.02,7.056q-0.728,1.316-1.764,1.316q-0.476,0-0.476-0.336q0-0.112,0.574-1.008t2.534-4.2q4.816-8.372,4.816-10.08q0-0.448-0.308-0.448q-0.448,0-1.316,0.756q-3.108,2.604-6.608,6.804t-5.264,6.972z"/><path fill="#" d=""/></svg>
